<?xml version="1.0" encoding="utf-8"?>
<!-- Generator: Adobe Illustrator 15.1.0, SVG Export Plug-In . SVG Version: 6.00 Build 0)  -->
<!DOCTYPE svg PUBLIC "-//W3C//DTD SVG 1.1//EN" "http://www.w3.org/Graphics/SVG/1.1/DTD/svg11.dtd">
<svg version="1.1" id="圖層_1" xmlns="http://www.w3.org/2000/svg" xmlns:xlink="http://www.w3.org/1999/xlink" x="0px" y="0px"
	 width="151px" height="70px" viewBox="0 0 151 70" enable-background="new 0 0 151 70" xml:space="preserve">
<title>logo/拍賣</title>
<desc>Created with Sketch.</desc>
<path id="Combined-Shape" fill="#FFFFFF" d="M6.99,4.361c-1.177,0-1.915-0.881-1.915-2.133c0-1.326,0.737-2.062,1.915-2.062H58.72
	c1.18,0,1.915,0.736,1.915,2.062c0,1.252-0.735,2.133-1.915,2.133H35.434v3.459h24.392c3.681,0,5.746,1.473,5.746,4.785v19.172
	c0,1.618-1.03,2.131-2.578,2.131c-1.622,0-2.801-0.513-2.801-2.131V13.342c0-1.248-0.811-1.689-2.212-1.689H35.434v23.803
	c0,1.694-1.027,2.136-2.654,2.136c-1.617,0-2.725-0.441-2.725-2.136V11.653H7.651c-1.398,0-2.209,0.442-2.209,1.689v18.286
	c0,1.621-1.035,2.209-2.652,2.209c-1.622,0-2.654-0.589-2.654-2.209V12.606c0-3.312,2.067-4.785,5.822-4.785h24.097V4.361H6.99z
	 M59.408,56.224c0.627,0.776,0.949,1.644,0.95,2.575v7.053c-0.046,0.881-0.39,1.712-1.039,2.511c-0.664,0.712-1.53,1.07-2.576,1.07
	H37.655c-1.147-0.046-2.06-0.376-2.711-0.978c-0.758-0.709-1.117-1.607-1.071-2.636v-7.021c0-0.982,0.329-1.853,0.965-2.589
	l0.014-0.021c0.795-0.841,1.753-1.24,2.827-1.192h19.065C57.846,54.997,58.743,55.408,59.408,56.224z M56.042,64.746L56.042,64.746
	v-4.814c-0.042-0.497-0.146-0.896-0.316-1.188c-0.249-0.29-0.585-0.438-1.002-0.438H39.818c-0.544-0.041-0.961,0.083-1.251,0.377
	c-0.25,0.29-0.375,0.709-0.375,1.248v4.814c0,0.541,0.145,0.896,0.44,1.064c0.291,0.207,0.685,0.311,1.187,0.311h14.906
	c0.458-0.084,0.774-0.208,0.94-0.373C55.916,65.494,56.042,65.163,56.042,64.746z M30.439,63.025
	c0.064,0.197,0.064,0.457,0.064,0.65c0,0.98-0.652,1.633-1.631,1.893c-6.584,1.825-15.851,3.52-23.679,4.365h-0.39
	c-1.043,0-1.825-0.521-2.021-1.889v-0.389c0-1.113,0.717-1.764,1.827-1.895c0.846-0.064,1.629-0.131,2.477-0.193V53.386
	c0-1.045,0.848-1.632,2.154-1.632c1.24,0,2.149,0.587,2.149,1.632v11.66c1.309-0.13,2.677-0.39,3.979-0.585
	c0.327-0.066,0.654-0.133,0.979-0.195V49.539h-5.02c-3.394,0-4.824-1.367-4.824-4.625v-4.168c0-3.329,1.498-4.629,4.887-4.629h12.72
	c3.396,0,4.893,1.301,4.893,4.629v4.168c0,3.258-1.564,4.625-4.893,4.625h-3.585v4.432h6.981c0.977,0,1.497,0.65,1.497,1.627
	c0,1.109-0.521,1.89-1.497,1.89h-6.981v5.995c2.608-0.521,5.151-1.107,7.435-1.758c0.327-0.064,0.652-0.134,0.912-0.134
	C29.723,61.591,30.179,62.049,30.439,63.025z M12.305,46.085L12.305,46.085h10.762c1.242,0,1.894-0.261,1.894-1.435v-3.516
	c0-1.174-0.59-1.438-1.827-1.438H12.375c-1.309,0-1.83,0.264-1.83,1.438v3.516C10.545,45.824,11.001,46.085,12.305,46.085z
	 M62.947,50.865c0.295,0.38,0.433,0.811,0.433,1.354c0,0-0.007,0.182-0.007,0.239c0,0.009,0,0.017,0,0.017
	c-0.14,0.616-0.426,1.061-0.868,1.353c-0.516,0.327-1.074,0.464-1.691,0.417c-5.815-0.85-10.367-2.2-13.528-4.021l-0.256-0.099
	l-0.18,0.159c-12.339,4.76-15.164,4.598-16.201,3.959c-0.429-0.383-0.696-0.873-0.839-1.504l-0.009-0.229
	c0-0.558,0.147-1.038,0.445-1.459c0.373-0.466,0.912-0.771,1.601-0.909c3.788-0.721,7.149-1.582,9.985-2.564l0.624-0.216
	l-0.541-0.376c-1.645-1.148-2.991-2.17-4.228-3.217l-0.209-0.173c0,0-0.286,0.221-0.353,0.274c-2.493,1.654-4.156,2.264-5.126,1.848
	c-0.576-0.193-0.972-0.548-1.17-1.043c-0.232-0.645-0.253-1.217-0.058-1.696c0.242-0.582,0.678-0.999,1.311-1.286
	c1.745-0.444,3.364-1.365,4.815-2.734l0.011-0.012c1.712-1.756,3.382-2.646,4.956-2.646l13.768,0.002
	c1.67,0.271,2.613,1.063,2.797,2.359l0.039,0.598c0,1.087-0.408,2.217-1.214,3.35c-1.101,1.609-2.458,2.962-4.034,4.023
	l-1.392,0.976l0.617,0.216c2.882,1.009,5.868,1.748,8.882,2.191C62.072,50.105,62.616,50.389,62.947,50.865z M47.064,45.785
	c3.303-2.004,5.329-3.505,6.082-4.511c0.207-0.583,0.249-1.062,0.125-1.438c-0.125-0.375-0.438-0.562-0.942-0.562h-9.402
	c-0.79,0.21-1.688,0.771-2.691,1.689C42.532,42.883,44.809,44.49,47.064,45.785z"/>
<path id="Combined-Shape_1_" fill="#FFFFFF" d="M15.906,21.607h3.884l5.707,11.313h-4.939l-2.702-6.833l-2.687,6.833h-4.93
	L15.906,21.607z M45.774,21.607h3.884l5.709,11.313h-4.942l-2.7-6.833l-2.69,6.833h-4.928L45.774,21.607z"/>
<path id="path36" fill="#FFFFFF" d="M72.351,12.538c-1.531,0-2.233-0.829-2.233-2.486c0-1.466,0.702-2.231,2.233-2.231h46.391
	c1.468,0,2.232,0.766,2.232,2.231c0,1.657-0.765,2.486-2.232,2.486H97.811v14.724h21.431c1.466,0,2.235,0.766,2.235,2.231
	c0,1.659-0.77,2.487-2.235,2.487H97.938c0.193,2.486,0.767,4.782,1.66,6.82c1.022,2.614,2.871,5.292,5.551,7.968
	c2.297,2.17,5.234,4.272,8.869,6.248c2.553,1.273,5.871,2.676,9.953,4.145c0.768,0.508,1.215,1.211,1.215,2.229
	c-0.127,1.531-0.832,2.361-2.234,2.486c-0.637,0-1.404-0.189-2.233-0.508c-5.104-1.785-9.316-3.826-12.508-6.055
	c-3.444-2.169-6.251-4.465-8.294-6.823c-2.168-2.677-3.7-5.61-4.594-8.797c-0.957,3.569-2.807,6.821-5.486,9.754
	c-2.744,2.804-6.127,5.353-10.211,7.584c-2.807,1.403-5.934,2.804-9.252,4.082c-0.891,0.51-1.531,0.763-1.976,0.763
	c-1.596-0.125-2.426-0.955-2.489-2.486c0-0.955,0.383-1.721,1.213-2.229c6.508-2.168,11.356-4.464,14.61-6.761
	c3.574-2.483,6.445-5.542,8.486-9.238c1.529-2.616,2.427-5.675,2.679-9.182H72.771c-1.534,0-2.236-0.828-2.236-2.486
	c0-1.465,0.702-2.231,2.236-2.231h20.256V12.538H72.351L72.351,12.538z"/>
<g id="Group" transform="translate(121.092859, 7.855362)">
	<path id="path40" fill="#404040" d="M25.588,0.043H9.216c-2.193,0-3.967,1.775-3.967,3.964v31.615L0.04,42.104l9.148,0.014
		c0.01,0,0.019,0,0.027,0h16.372c2.19,0,3.968-1.776,3.968-3.965V4.006C29.556,1.817,27.778,0.043,25.588,0.043z"/>
	<path id="Combined-Shape_2_" fill="#FFFFFF" d="M15.057,6.742c0.337,0,0.556,0.277,0.556,0.671c0,0.413-0.219,0.689-0.556,0.689
		h-1.578v2.426c0.493-0.199,0.946-0.417,1.341-0.612c0.1-0.062,0.201-0.079,0.276-0.079c0.22,0,0.392,0.159,0.517,0.434
		c0.057,0.115,0.078,0.232,0.078,0.352c0,0.216-0.102,0.377-0.336,0.513c-0.535,0.297-1.185,0.59-1.876,0.889v4.806
		c0,1.263-0.59,1.777-2.095,1.777c-0.629,0-1.101-0.061-1.575-0.16c-0.295-0.059-0.476-0.316-0.476-0.669
		c0-0.059,0-0.116,0.021-0.199c0.061-0.392,0.295-0.568,0.553-0.568c0.039,0,0.078,0,0.137,0.021
		c0.317,0.077,0.789,0.136,1.186,0.136c0.65,0,0.788-0.117,0.788-0.67v-3.919c-0.671,0.254-1.361,0.49-1.954,0.689
		c-0.099,0.021-0.177,0.038-0.256,0.038c-0.273,0-0.511-0.176-0.609-0.532c-0.042-0.116-0.063-0.217-0.063-0.315
		c0-0.276,0.161-0.472,0.436-0.551c0.73-0.218,1.602-0.513,2.446-0.807V8.102h-2.21c-0.375,0-0.553-0.276-0.553-0.67
		c0-0.413,0.178-0.69,0.553-0.69h2.21V4.235c0-0.376,0.279-0.574,0.712-0.574c0.473,0,0.748,0.198,0.748,0.574v2.506H15.057z
		 M23.518,5.263c1.1,0,1.647,0.439,1.646,1.606v10.109c0,1.188-0.547,1.629-1.646,1.629h-6.048c-1.117,0-1.647-0.442-1.647-1.629
		V6.871c0-1.168,0.53-1.606,1.647-1.606h1.356c0.422-0.88,0.77-1.815,0.973-2.509c0.092-0.349,0.274-0.475,0.569-0.475
		c0.093,0,0.219,0.017,0.346,0.035c0.385,0.091,0.606,0.257,0.606,0.512c0,0.035,0,0.092-0.02,0.145
		c-0.258,0.842-0.604,1.611-0.951,2.292L23.518,5.263z M23.776,16.76L23.776,16.76v-4.415l-6.563,0.001v4.413
		c0,0.383,0.187,0.512,0.571,0.512l5.402-0.001C23.593,17.271,23.776,17.142,23.776,16.76z M23.776,11.047L23.776,11.047
		l0.001-3.954c0-0.4-0.185-0.513-0.591-0.513l-5.402,0.001c-0.385,0-0.57,0.112-0.57,0.512v3.954H23.776z"/>
	<path id="Combined-Shape_3_" fill="#FFFFFF" d="M24.403,37.994c-0.944-0.051-1.926-0.207-2.811-0.445h0.131
		c0.957,0,1.39-0.354,1.39-1.224v-3.662c0-0.886-0.452-1.237-1.472-1.237l-8.334,0.001c-1.004,0-1.475,0.351-1.475,1.239v3.659
		c0,0.823,0.396,1.181,1.242,1.218c-0.855,0.238-1.832,0.406-2.77,0.469c-0.317,0.017-0.486,0.203-0.486,0.502
		c0,0.035,0,0.066,0.019,0.117c0.032,0.318,0.271,0.521,0.587,0.521h0.086c1.592-0.136,3.385-0.571,4.621-1.171
		c0.222-0.102,0.305-0.254,0.305-0.422v-0.007h3.688v0.007c0,0.168,0.101,0.338,0.351,0.436c1.309,0.603,3.204,1.057,4.777,1.154
		h0.084c0.336,0,0.536-0.199,0.587-0.535v-0.1C24.925,38.213,24.724,38.012,24.403,37.994L24.403,37.994z M13.038,32.666
		c0-0.286,0.168-0.371,0.486-0.371h7.914c0.318,0,0.468,0.085,0.468,0.368v0.651h-8.868V32.666z M13.038,34.104l8.868-0.002v0.743
		l-8.868,0.003V34.104z M13.524,36.661c-0.318,0-0.486-0.083-0.486-0.368V35.63h8.868v0.663c0,0.285-0.149,0.368-0.468,0.368H13.524
		z M9.976,23.318c-0.274,0-0.431-0.252-0.431-0.544c0-0.294,0.156-0.508,0.431-0.508h6.49v-0.777c0-0.37,0.233-0.549,0.7-0.549
		c0.447,0,0.705,0.18,0.705,0.549v0.777h6.938c0.253,0,0.412,0.214,0.412,0.508c0,0.292-0.159,0.543-0.412,0.543l-6.938,0.001v1.396
		h5.551c0.256,0,0.412,0.235,0.412,0.488c0,0.29-0.156,0.527-0.412,0.527H11.286c-0.257,0-0.413-0.236-0.413-0.527
		c0-0.253,0.156-0.488,0.413-0.488h5.181v-1.396H9.976z M23.731,26.394c1.072,0,1.541,0.276,1.541,0.99v2.468
		c0,0.715-0.468,0.973-1.541,0.973H10.995c-1.056,0-1.521-0.258-1.521-0.973v-2.467c0-0.714,0.465-0.989,1.521-0.989L23.731,26.394z
		 M14.218,30.08L14.218,30.08v-2.938h-2.813c-0.348,0-0.525,0.064-0.525,0.34v2.271c0,0.262,0.178,0.326,0.525,0.326H14.218z
		 M18.927,30.08v-2.938h-3.34v2.938H18.927z M23.869,29.752v-2.27c0-0.276-0.196-0.34-0.53-0.34h-3.048v2.938l3.048-0.001
		C23.673,30.079,23.869,30.015,23.869,29.752z"/>
</g>
</svg>
