<?xml version="1.0" encoding="UTF-8"?>
<svg id="_圖層_1" data-name="圖層 1" xmlns="http://www.w3.org/2000/svg" viewBox="0 0 566.93 566.93">
  <defs>
    <style>
      .cls-1 {
        fill: #f49e4a;
      }
    </style>
  </defs>
  <g>
    <path class="cls-1" d="M225.12,224.2h-34.4v-9.18h46.1c.59,0,1.07-.48,1.07-1.07v-9.04c0-.59-.48-1.07-1.07-1.07h-103.38c-.59,0-1.07,.48-1.07,1.07v9.04c0,.59,.48,1.07,1.07,1.07h46.1v9.18h-34.4c-18.01,0-32.6,14.6-32.6,32.6v10.79c0,.59,.48,1.07,1.07,1.07h9.04c.59,0,1.07-.48,1.07-1.07v-10.79c0-11.83,9.59-21.42,21.42-21.42h34.4v27.67c0,.59,.48,1.07,1.07,1.07h9.04c.59,0,1.07-.48,1.07-1.07v-27.67h34.4c11.83,0,21.42,9.59,21.42,21.42v10.79c0,.59,.48,1.07,1.07,1.07h9.04c.59,0,1.07-.48,1.07-1.07v-10.79c0-18.01-14.6-32.6-32.6-32.6Z"/>
    <path class="cls-1" d="M385.04,349.87c-28.28-.62-51.75-26.33-56.66-60h52.42c.55,0,.99-.51,.99-1.14v-9.08c0-.63-.44-1.14-.99-1.14h-53.29c0-.59,.02-1.17,.02-1.76v-39.9h46.12c.48,0,.87-.51,.87-1.14v-9.08c0-.63-.39-1.14-.87-1.14h-102.46c-.48,0-.87,.51-.87,1.14v9.08c0,.63,.39,1.14,.87,1.14h45.57v39.9c0,.59,0,1.18,.02,1.76h-52.93c-.55,0-.99,.51-.99,1.14v9.08c0,.63,.44,1.14,.99,1.14h52.06c-4.91,33.67-28.38,59.38-56.66,60-.58,.01-1.05,.5-1.05,1.12v9.08c0,.64,.5,1.16,1.1,1.15,28.27-.54,52.49-21.79,62.85-51.82,10.37,30.03,34.58,51.29,62.85,51.82,.6,.01,1.1-.51,1.1-1.15v-9.08c0-.62-.47-1.11-1.05-1.12Z"/>
    <path class="cls-1" d="M411.2,298.44v1.65c0,.23,.19,.41,.42,.41h9.53v-2.39h-9.62c-.18,0-.33,.15-.33,.33Z"/>
    <rect class="cls-1" x="411.2" y="292.8" width="9.95" height="2.2"/>
    <path class="cls-1" d="M411.2,287.64v2.05h9.95v-2.39h-9.68c-.17,.04-.24,.19-.27,.34Z"/>
    <path class="cls-1" d="M443.26,225.42h-42.1c-5.23,0-9.46,4.19-9.46,9.36v97.42h51.56c6.12,0,11.13-4.95,11.13-11.01v-84.76c0-6.05-5.01-11.01-11.13-11.01Zm-35.75,17.4c-.18,0-.33-.15-.33-.33v-3.48c0-.18,.15-.33,.33-.33h13.73v-3.54c0-.18,.15-.33,.33-.33h3.52c.18,0,.33,.15,.33,.33v3.54h13.57c.18,0,.33,.15,.33,.33v3.48c0,.18-.15,.33-.33,.33h-13.57v4.1h8.38c3.11,0,5.64,2.5,5.64,5.58v12.01c0,2.11-1.73,3.82-3.87,3.82h-3.09c-.18,0-.33-.15-.33-.33v-3.48c0-.18,.15-.33,.33-.33h2.43c.18,0,.33-.15,.33-.33v-11.36c0-.79-.65-1.43-1.45-1.43h-8.38v20.89c0,.18-.15,.33-.33,.33h-3.52c-.18,0-.33-.15-.33-.33v-20.89h-8.66c-.8,0-1.45,.64-1.45,1.43l.04,15c0,.18-.15,.33-.33,.33h-3.52c-.18,0-.33-.14-.33-.32l-.04-15.01c0-3.08,2.53-5.58,5.64-5.58h8.66v-4.1h-13.73Zm33.73,68.45c0,.18-.15,.33-.33,.33h-12.62c2.61,2.51,6.7,4.09,11.17,4.16,.18,0,.32,.14,.32,.32v3.49c0,.19-.16,.34-.35,.34-5.55-.08-10.69-2.12-14.09-5.39v6.15c0,.18-.15,.33-.33,.33h-3.52c-.18,0-.33-.15-.33-.33v-6.02c-3.38,3.19-8.44,5.18-13.96,5.26-.19,0-.35-.15-.35-.34v-3.49c0-.18,.14-.32,.32-.32,4.42-.07,8.52-1.67,11.14-4.16h-12.54c-.18,0-.33-.15-.33-.33v-3.48c0-.18,.15-.33,.33-.33h15.38v-2.8h-9.95c-2.31,0-4.19-1.86-4.19-4.14h0v-8.42c0-.09-.03-.17-.09-.23l-3.21-3.28c-.13-.13-.12-.33,0-.46,2.26-2.2,4.29-4.64,6.04-7.27,0,0,.3-.48,.41-.47,.21,.03,4.08,2.71,4.08,2.71,.05,.04,.12,.05,.18,.05h6.73v-3.66c0-.18,.15-.33,.33-.33h3.52c.18,0,.33,.15,.33,.33v3.66h14.16c.18,0,.33,.15,.33,.33v3.48c0,.18-.15,.33-.33,.33h-14.16v2.39h12.68c.18,0,.33,.15,.33,.33v2.45c0,.18-.15,.33-.33,.33h-12.68v2.2h12.68c.18,0,.33,.15,.33,.33v2.45c0,.18-.15,.33-.33,.33h-12.68v2.39h12.76c.18,0,.33,.15,.33,.33v3.48c0,.18-.15,.33-.33,.33h-12.76v2.8h15.56c.18,0,.33,.15,.33,.33v3.48Z"/>
    <path class="cls-1" d="M167.25,277.81h-27.92c-5.9,0-10.68,4.78-10.68,10.68v11.6c0,5.9,4.78,10.68,10.68,10.68h9.3v40.87c-6.61-1.24-11.61-7.03-11.61-13.99v-10.64c0-.59-.48-1.07-1.07-1.07h-9.04c-.59,0-1.07,.48-1.07,1.07l-.03,11.06c-.04,13.8,11.13,25.01,24.93,25.01h25.84c.59,0,1.07-.48,1.07-1.07v-9.04c0-.59-.48-1.07-1.07-1.07h-16.76v-15.67h16.76c.59,0,1.07-.48,1.07-1.07v-9.04c0-.59-.48-1.07-1.07-1.07h-16.76v-14.27h7.44c5.9,0,10.68-4.78,10.68-10.68v-11.6c0-5.9-4.78-10.68-10.68-10.68Zm-.49,18.23c0,1.97-1.59,3.56-3.56,3.56h-19.81c-1.97,0-3.56-1.59-3.56-3.56v-3.49c0-1.97,1.59-3.56,3.56-3.56h19.81c1.97,0,3.56,1.59,3.56,3.56v3.49Z"/>
    <path class="cls-1" d="M237.16,302.12c3.03-3.85,4.64-8,4.64-12.01v-1.55c0-5.9-4.78-10.68-10.68-10.68h-30.93c-5.9,0-10.68,4.78-10.68,10.68v1.54c0,4.02,1.61,8.18,4.65,12.04,2.02,2.55,4.65,4.78,7.82,6.64l1.94,1.14c-3.95,1.59-6.29,1.92-7.54,1.92l-5.25-.02c-.59,0-1.07,.47-1.07,1.06l-.04,9.04c0,.59,.47,1.07,1.06,1.07l5.22,.02c.07,0,.15,0,.23,0,.04,0,.07,0,.11,0h.01c.1,0,.19,0,.28-.01,4.93-.15,11.07-2.21,18.73-6.31,7.89,4.22,14.18,6.29,19.15,6.29,.19,0,.4,0,.59-.02l4.81,.02c.59,0,1.07-.48,1.07-1.07v-9.04c.01-.59-.47-1.07-1.06-1.07h-4.33c-.23,0-.45,0-.66,.02v-.02s-.39,0-.39,0h-.03c-1.02,0-3.32-.25-7.4-1.89l1.91-1.12c3.19-1.86,5.83-4.1,7.84-6.66Zm-13.48-2.99l-6.23,3.64c-1.11,.65-2.49,.65-3.6,0l-6.24-3.65c-1.97-1.15-3.54-2.47-4.69-3.92-.44-.55-.82-1.28-1.13-2.06-.94-2.31,.85-4.82,3.34-4.82h21.05c2.49,.01,4.27,2.52,3.33,4.82-.32,.78-.69,1.5-1.13,2.05-1.15,1.45-2.73,2.77-4.7,3.93Z"/>
    <path class="cls-1" d="M235.95,329.17h-34.31c-6.48,0-11.73,4.71-11.73,10.53v22.29c0,.59,.48,1.06,1.06,1.06h37.16c10.8,0,19.56-7.86,19.56-17.55v-5.81c0-5.81-5.25-10.53-11.73-10.53Zm1.19,16.34c0,3.72-4.13,6.86-9.01,6.86h-27.68v-12.2c.21-.13,.6-.31,1.19-.31h34.31c.59,0,.98,.17,1.19,.31v5.34Z"/>
  </g>
  <path class="cls-1" d="M161.21,267.31l-7.12-7.12c-.41-.41-1.08-.41-1.49,0l-7.12,7.12c-.42,.42-1.09,.42-1.51,0l-6.39-6.39c-.42-.42-.42-1.09,0-1.51l8.3-8.3c4.12-4.12,10.81-4.12,14.94,0l8.3,8.3c.42,.42,.42,1.09,0,1.51l-6.39,6.39c-.42,.42-1.09,.42-1.51,0Z"/>
  <path class="cls-1" d="M226.76,267.98l-7.12-7.12c-.41-.41-1.08-.41-1.49,0l-7.12,7.12c-.42,.42-1.09,.42-1.51,0l-6.39-6.39c-.42-.42-.42-1.09,0-1.51l8.3-8.3c4.12-4.12,10.81-4.12,14.94,0l8.31,8.3c.42,.42,.42,1.09,0,1.51l-6.39,6.39c-.42,.42-1.09,.42-1.51,0Z"/>
</svg>