<?xml version="1.0" encoding="utf-8"?>
<!-- Generator: Adobe Illustrator 23.1.0, SVG Export Plug-In . SVG Version: 6.00 Build 0)  -->
<svg version="1.1" id="圖層_1" xmlns="http://www.w3.org/2000/svg" xmlns:xlink="http://www.w3.org/1999/xlink" x="0px" y="0px"
	 viewBox="0 0 126 56" style="enable-background:new 0 0 126 56;" xml:space="preserve">
<style type="text/css">
	.st0{display:none;}
	.st1{display:inline;fill-rule:evenodd;clip-rule:evenodd;fill:#822E2E;}
	.st2{display:inline;fill:#F29100;}
	.st3{display:inline;fill-rule:evenodd;clip-rule:evenodd;fill:#FFFFFF;}
	.st4{fill:#FFFFFF;}
	.st5{fill:#F49E4A;}
</style>
<g class="st0">
	<rect x="-1.8" y="-4.5" class="st1" width="142" height="70.6"/>
</g>
<g class="st0">
	<rect x="109" y="8" class="st2" width="15" height="32"/>
	<path class="st3" d="M47.4,0c0.2,0,0.4,0,0.6,0.1c0.2,0.1,0.4,0.2,0.5,0.4s0.3,0.4,0.3,0.6C49,1.3,49,1.5,49,1.7s0,0.4-0.1,0.7
		c-0.1,0.2-0.2,0.4-0.3,0.6c-0.1,0.2-0.3,0.3-0.5,0.4c-0.2,0.1-0.4,0.1-0.6,0.1H28.6v2.9h19.7c3,0,4.6,1.2,4.6,4v13.8
		c0,1.3-0.8,1.8-2.1,1.8s-2.3-0.4-2.3-1.8V10.9c0-1-0.7-1.4-1.8-1.4H28.6v15.6c0,1.4-0.8,1.8-2.1,1.8h-0.1c-1.3,0-2.2-0.4-2.2-1.8
		V9.5H6.1c-1.1,0-1.8,0.4-1.8,1.4v13c0,1.3-0.8,1.8-2.1,1.8s-2.1-0.5-2.1-1.8V10.3c0-2.7,1.7-4,4.7-4h19.5V3.5H5.5
		c-0.2,0-0.4,0-0.6-0.1C4.7,3.2,4.5,3.1,4.4,2.9S4.1,2.6,4.1,2.4C4,2.2,4,1.9,4,1.7S4,1.3,4.1,1c0.1-0.2,0.2-0.4,0.3-0.6
		C4.5,0.2,4.7,0.1,4.9,0c0.2,0,0.4,0,0.6,0H47.4z"/>
	<path class="st3" d="M18.9,26.6H8.1c-2.8,0-4,1.1-4,4v3.7c0,2.7,1.2,3.9,4.1,3.9h4.2v12.6H12l-0.4,0.1l-1,0.2
		c-0.8,0.1-1.6,0.3-2.3,0.3V41.3c0-0.9-0.8-1.3-1.8-1.3s-1.8,0.5-1.8,1.4v10.5H4.2L2.6,52c-0.2,0-0.4,0-0.6,0.1s-0.4,0.2-0.5,0.4
		S1.2,52.8,1.2,53C1.1,53.2,1,53.4,1,53.6V54v0.1c0,0.2,0.1,0.4,0.1,0.6c0.1,0.2,0.2,0.4,0.4,0.5s0.3,0.3,0.5,0.3s0.4,0.1,0.6,0.1H3
		h0.4c6.6-0.7,13.1-2,19.6-3.7c0.4-0.1,0.7-0.3,1-0.6s0.4-0.7,0.4-1.1c0-0.2,0-0.4-0.1-0.6v-0.1c-0.2-0.8-0.6-1.2-1.3-1.2
		c-0.2,0-0.4,0-0.6,0.1h-0.2c-1.9,0.6-4.1,1.1-6.2,1.5v-5.1h5.9c0.8,0,1.2-0.7,1.2-1.6c0-0.2,0-0.4,0-0.5c-0.1-0.2-0.1-0.3-0.3-0.5
		c-0.1-0.1-0.3-0.2-0.4-0.3c-0.2-0.1-0.3-0.1-0.5-0.1H16v-3.7h3c2.7,0,4-1.2,4-4v-3.7C23.1,27.7,21.8,26.6,18.9,26.6z M9.1,29.7h9.1
		c1,0,1.5,0.2,1.5,1.2V34c0,0.9-0.6,1.2-1.6,1.2H8.9c-1,0-1.4-0.2-1.4-1.2v-3.1C7.6,29.9,8,29.7,9.1,29.7L9.1,29.7z"/>
	<path class="st3" d="M30.3,42.8h-0.1c-0.4,0-0.9,0.1-1.2,0.3c-0.4,0.2-0.7,0.4-1,0.8l0,0L27.9,44c-0.5,0.6-0.7,1.4-0.7,2.1v6.1
		c0,0.4,0.1,0.8,0.2,1.2c0.2,0.4,0.4,0.7,0.7,1c0.6,0.6,1.4,0.8,2.3,0.8h16.2c0.4,0,0.8-0.1,1.1-0.2c0.4-0.2,0.7-0.4,0.9-0.7
		c0.5-0.6,0.8-1.4,0.9-2.2v-6.2c0-0.8-0.3-1.5-0.8-2.1c-0.3-0.3-0.6-0.6-1-0.8s-0.8-0.3-1.2-0.3L30.3,42.8z M32.1,45.6h12.6
		c0.1,0,0.3,0,0.4,0.1c0.1,0.1,0.3,0.2,0.3,0.3c0.2,0.3,0.2,0.7,0.3,1v4.2c0,0.3-0.1,0.6-0.3,0.8s-0.5,0.3-0.8,0.3H32.1
		c-0.3,0-0.6-0.1-0.9-0.3c-0.1-0.1-0.2-0.2-0.3-0.4c-0.1-0.2-0.1-0.3-0.1-0.5v-4.2c0-0.4,0.1-0.7,0.3-1c0.1-0.1,0.3-0.2,0.5-0.3
		C31.8,45.6,32,45.6,32.1,45.6z"/>
	<path class="st3" d="M45.4,26.7H33.8c-1.3,0-2.7,0.8-4.1,2.3l-0.1,0.1c-1.1,1.1-2.4,1.8-3.9,2.2c-0.2,0.1-0.5,0.3-0.7,0.4
		c-0.2,0.2-0.3,0.4-0.4,0.7c-0.2,0.5-0.1,1,0.1,1.5c0.1,0.2,0.2,0.4,0.4,0.6c0.2,0.2,0.4,0.3,0.6,0.3c0.8,0.3,2.1-0.1,4.1-1.5
		l0.2-0.2l0.3-0.2l0.2,0.1l0.2,0.2c1,0.8,2.1,1.7,3.4,2.6l0.5,0.3l-0.5,0.2l-0.3,0.1c-2.7,0.9-5.4,1.6-8.1,2.1
		c-0.5,0.1-1,0.4-1.3,0.8c-0.3,0.4-0.4,0.8-0.4,1.3v0.2v0.1c0.1,0.5,0.4,0.9,0.7,1.2c0.9,0.5,3.2,0.7,13.6-3.4l0.2-0.1l0.2,0.1
		l0.1,0.1c2.6,1.5,6.4,2.7,11.2,3.4c0.5,0,1-0.1,1.4-0.4c0.4-0.3,0.6-0.7,0.7-1.2v-0.3c0-0.4-0.1-0.8-0.4-1.1v-0.1
		c-0.2-0.2-0.4-0.4-0.6-0.5c-0.2-0.1-0.5-0.2-0.7-0.2c-2.5-0.4-5-1-7.5-1.9l-0.5-0.2l1.2-0.8l0.2-0.1c1.3-0.9,2.4-2,3.2-3.3l0.1-0.1
		c0.6-0.8,0.9-1.8,0.9-2.8v-0.5v-0.1C47.6,27.6,46.8,27,45.4,26.7z M34.8,29.3h8c0.2,0,0.3,0,0.4,0.1c0.1,0.1,0.2,0.2,0.3,0.4
		c0.1,0.4,0.1,0.8-0.1,1.2c-0.6,0.8-2.2,2.1-4.8,3.7l-0.3,0.2c-2-1.2-3.9-2.6-5.7-4.1C33.1,30.1,33.9,29.6,34.8,29.3L34.8,29.3z"/>
	<path class="st3" d="M14.3,13.6c1,0,1.8,0.5,2.2,1.4l3.2,6.5c0.3,0.7-0.2,1.4-0.9,1.4h-1.7c-0.4,0-0.8-0.3-0.9-0.6l-1.9-5L12.2,23
		H9.8c-0.7,0-1.2-0.8-0.9-1.4l3.2-6.5C12.5,14.1,13.4,13.6,14.3,13.6L14.3,13.6z M38.5,13.6c1,0,1.8,0.5,2.2,1.4l3.2,6.5
		c0.3,0.7-0.2,1.4-0.9,1.4h-1.7c-0.4,0-0.8-0.3-0.9-0.6l-1.9-5l-1.9,5c-0.1,0.4-0.5,0.6-0.9,0.6H34c-0.7,0-1.2-0.8-0.9-1.4l3.2-6.5
		C36.7,14.1,37.6,13.6,38.5,13.6L38.5,13.6z"/>
	<path class="st3" d="M56.6,8.2c0-0.3,0-0.5,0.1-0.7s0.2-0.5,0.4-0.6c0.2-0.2,0.4-0.3,0.6-0.4c0.2-0.1,0.5-0.1,0.7-0.1H100
		c0.2,0,0.5,0,0.7,0.1s0.4,0.2,0.6,0.4c0.2,0.2,0.3,0.4,0.4,0.6s0.1,0.5,0.1,0.7c0,1.4-0.6,2.1-1.8,2.1H81v12.2h19.4
		c0.2,0,0.5,0,0.7,0.1s0.4,0.2,0.6,0.4c0.2,0.2,0.3,0.4,0.4,0.6s0.1,0.5,0.1,0.7c0,1.4-0.6,2.1-1.8,2.1H81.2
		c0.1,1.9,0.6,3.9,1.3,5.6c1,2.5,2.6,4.7,4.5,6.6c2.2,2,4.6,3.8,7.2,5.2c2.6,1.3,5.3,2.4,8.1,3.4c0.3,0.2,0.6,0.5,0.7,0.8
		c0.2,0.3,0.3,0.7,0.2,1.1c-0.1,1.3-0.7,1.9-1.8,2.1c-0.6,0-1.2-0.2-1.8-0.4c-3.6-1.2-7-2.9-10.1-5c-2.5-1.5-4.8-3.4-6.7-5.6
		c-1.7-2.1-3-4.6-3.7-7.3c-0.8,3-2.4,5.8-4.5,8.1c-2.4,2.5-5.2,4.6-8.3,6.3c-2.3,1.2-4.8,2.3-7.5,3.4c-0.5,0.3-1,0.5-1.6,0.6
		c-0.3,0-0.5,0-0.8-0.1s-0.5-0.2-0.7-0.4s-0.3-0.4-0.4-0.7c-0.1-0.3-0.1-0.5-0.1-0.8c0-0.4,0.1-0.7,0.2-1.1c0.2-0.3,0.4-0.6,0.7-0.8
		c5.3-1.8,9.2-3.7,11.8-5.6c2.8-2,5.2-4.6,6.9-7.6c1.3-2.3,2-4.9,2.1-7.6H58.8c-1.2,0-1.8-0.7-1.8-2.1c0-0.3,0-0.5,0.1-0.7
		s0.2-0.5,0.4-0.6c0.2-0.2,0.4-0.3,0.6-0.4c0.2-0.1,0.5-0.1,0.7-0.1h18.4V10.2H58.5C57.2,10.2,56.6,9.6,56.6,8.2z"/>
	<path class="st3" d="M109.4,6.4h13.3c0.4,0,0.8,0.1,1.2,0.2c0.4,0.2,0.7,0.4,1,0.7c0.3,0.3,0.5,0.7,0.7,1.1
		c0.2,0.4,0.2,0.8,0.2,1.3V38c0,0.4-0.1,0.9-0.2,1.3c-0.2,0.4-0.4,0.8-0.7,1.1c-0.3,0.3-0.7,0.5-1,0.7c-0.4,0.2-0.8,0.3-1.2,0.3H102
		l4.2-5.4V9.7c0-0.4,0.1-0.9,0.2-1.3c0.2-0.4,0.4-0.8,0.7-1.1c0.3-0.3,0.7-0.5,1-0.7C108.6,6.5,109,6.4,109.4,6.4z M116.2,23.2
		c-0.1,0-0.1,0-0.2,0l0,0c-0.2,0-0.3-0.1-0.4-0.2s-0.2-0.3-0.2-0.4v-7c0,0,0,0,0-0.1c0,0,0,0,0-0.1c0,0,0,0-0.1,0c0,0,0,0-0.1,0H112
		c0,0,0,0-0.1,0c0,0,0,0-0.1,0c0,0,0,0,0,0.1c0,0,0,0,0,0.1v5.1c0,0.1,0,0.2,0,0.2c0,0.1-0.1,0.1-0.1,0.2c-0.1,0.1-0.3,0.2-0.4,0.2
		s-0.1,0-0.2,0s-0.1-0.1-0.2-0.1c-0.1-0.1-0.1-0.1-0.1-0.2s0-0.1,0-0.2v-5c0-0.3,0.1-0.7,0.4-0.9c0.2-0.2,0.6-0.4,0.9-0.4h3.2
		c0,0,0,0,0.1,0c0,0,0,0,0.1,0c0,0,0,0,0-0.1c0,0,0,0,0-0.1v-1.8c0,0,0,0,0-0.1c0,0,0,0,0-0.1c0,0,0,0-0.1,0c0,0,0,0-0.1,0h-5.5
		c-0.1,0-0.1,0-0.2,0s-0.1-0.1-0.2-0.1c-0.1-0.1-0.1-0.1-0.1-0.2c0-0.1,0-0.1,0-0.2c0-0.2,0.1-0.3,0.2-0.4c0.1-0.1,0.2-0.2,0.4-0.2
		h5.4c0,0,0,0,0.1,0c0,0,0,0,0.1,0c0,0,0,0,0-0.1c0,0,0,0,0-0.1V9.5c0-0.1,0-0.2,0-0.2c0-0.1,0.1-0.1,0.1-0.2
		c0.1-0.1,0.1-0.1,0.2-0.1s0.1,0,0.2,0c0.2,0,0.3,0.1,0.4,0.2c0.1,0.1,0.1,0.1,0.1,0.2c0,0.1,0,0.2,0,0.2V11c0,0.1,0,0.2,0.1,0.2
		h5.6c0.1,0,0.1,0,0.2,0s0.1,0.1,0.2,0.1c0.1,0.1,0.1,0.1,0.1,0.2c0,0.1,0,0.1,0,0.2c0,0.1,0,0.1,0,0.2c0,0.1-0.1,0.1-0.1,0.2
		c-0.1,0.1-0.1,0.1-0.2,0.1s-0.1,0-0.2,0h-5.6c0,0,0,0-0.1,0c0,0,0,0-0.1,0c0,0,0,0,0,0.1c0,0,0,0,0,0.1v1.8c0,0,0,0,0,0.1
		c0,0,0,0,0,0.1c0,0,0,0,0.1,0c0,0,0,0,0.1,0h3.5c0.3,0,0.7,0.1,0.9,0.4c0.2,0.2,0.4,0.6,0.4,0.9v4.1c0,0.3,0,0.5-0.1,0.8
		c-0.1,0.2-0.3,0.3-0.5,0.4c-0.7,0.2-1.4,0.3-2.1,0.2c-0.2,0-0.3-0.1-0.5-0.2c-0.1-0.1-0.2-0.3-0.3-0.4c0-0.1,0-0.1,0-0.2
		s0-0.1,0.1-0.2c0-0.1,0.1-0.1,0.1-0.1c0.1,0,0.1,0,0.2,0h1.6c0.1,0,0.2,0,0.3-0.1c0,0,0-0.1,0.1-0.1v-0.1v-4.2c0,0,0,0,0-0.1
		c0,0,0,0,0-0.1c0,0,0,0-0.1,0c0,0,0,0-0.1,0h-3.4c0,0,0,0-0.1,0c0,0,0,0-0.1,0c0,0,0,0,0,0.1c0,0,0,0,0,0.1v7
		c0,0.2-0.1,0.3-0.2,0.4C116.3,23.1,116.3,23.2,116.2,23.2z M116.2,38.7c-0.1,0-0.1,0-0.2,0l0,0c-0.1,0-0.1,0-0.2,0
		s-0.1-0.1-0.2-0.1c-0.1-0.1-0.1-0.1-0.1-0.2c0-0.1,0-0.1,0-0.2v-2.5l0,0l0,0l0,0l0,0c-0.7,0.6-1.5,1.2-2.4,1.6
		c-0.9,0.5-1.8,0.9-2.7,1.3c-0.1,0-0.2,0-0.3,0c-0.1,0-0.2,0-0.2,0c-0.2-0.1-0.3-0.2-0.4-0.3c0-0.1-0.1-0.1-0.1-0.2
		c0-0.1,0-0.1,0-0.2c0-0.1,0-0.1,0.1-0.2c0,0,0.1-0.1,0.2-0.1c0.9-0.3,1.8-0.6,2.6-1c0.8-0.4,1.6-0.8,2.3-1.4l0,0l0,0l0,0H110
		c-0.1,0-0.2-0.1-0.3-0.1c0,0-0.1-0.1-0.1-0.2c0-0.1,0-0.1,0-0.2c0-0.1,0-0.1,0-0.2c0-0.1,0.1-0.1,0.1-0.2c0,0,0.1-0.1,0.2-0.1
		s0.1,0,0.2,0h5.5c0,0,0,0,0.1,0l0,0c0,0,0,0,0-0.1c0,0,0,0,0-0.1v-0.7c0,0,0,0,0-0.1l0,0l0,0c0,0,0,0-0.1,0h-2.9
		c-0.3,0-0.7-0.1-0.9-0.4c-0.2-0.2-0.4-0.6-0.4-0.9v-3.1l0,0l0,0l0,0l0,0c-0.3,0.3-0.6,0.6-0.9,0.9c-0.1,0-0.1,0.1-0.2,0.1
		s-0.1,0-0.2,0s-0.3-0.1-0.4-0.2c-0.1,0-0.1-0.1-0.1-0.2s0-0.1,0-0.2s0-0.1,0-0.2s0.1-0.1,0.1-0.2c1.2-1,2.2-2.3,2.9-3.7
		c0.1-0.1,0.2-0.3,0.4-0.3c0.1-0.1,0.2-0.1,0.3-0.1c0,0,0.1,0,0.2,0s0.1,0,0.2,0.1c0.1,0,0.1,0.1,0.1,0.2s0,0.1,0,0.2s0,0.1,0,0.2
		c-0.2,0.3-0.4,0.6-0.6,1l0,0l0,0l0,0l0,0h2.6h0.1l0.1-0.1c0.2-0.4,0.4-0.7,0.5-1.1c0.1-0.2,0.2-0.3,0.3-0.4
		c0.1-0.1,0.2-0.1,0.4-0.1h0.1c0.1,0,0.1,0,0.2,0.1c0.1,0,0.1,0.1,0.1,0.2s0.1,0.1,0.1,0.2s0,0.1-0.1,0.2l-0.5,1v0.1l0,0l0,0h4.4
		c0.1,0,0.1,0,0.2,0s0.1,0.1,0.1,0.1l0.1,0.1c0,0.1,0,0.1,0,0.2s0,0.1,0,0.2s-0.1,0.1-0.1,0.1l-0.1,0.1c-0.1,0-0.1,0-0.2,0h-4.4
		c0,0,0,0-0.1,0l0,0c0,0,0,0,0,0.1c0,0,0,0,0,0.1v0.7c0,0,0,0,0,0.1c0,0,0,0,0,0.1l0,0c0,0,0,0,0.1,0h3.8c0.1,0,0.1,0,0.2,0l0.1,0.1
		l0.1,0.1c0,0.1,0,0.1,0,0.2s0,0.2-0.1,0.3c-0.1,0.1-0.2,0.1-0.3,0.1h-3.8c0,0,0,0-0.1,0l0,0c0,0,0,0,0,0.1c0,0,0,0,0,0.1V30
		c0,0,0,0,0,0.1c0,0,0,0,0,0.1l0,0c0,0,0,0,0.1,0h3.9c0.1,0,0.2,0,0.3,0.1l0.1,0.1c0,0,0,0.1,0,0.2s0,0.1,0,0.2c0,0,0,0.1-0.1,0.1
		c-0.1,0.1-0.2,0.1-0.3,0.1h-3.9c0,0,0,0-0.1,0l0,0c0,0,0,0,0,0.1c0,0,0,0,0,0.1V32c0,0,0,0,0,0.1c0,0,0,0,0,0.1l0,0c0,0,0,0,0.1,0
		h5c0.1,0,0.1,0,0.2,0s0.1,0.1,0.1,0.1s0.1,0.1,0.1,0.2c0,0.1,0,0.1,0,0.2c0,0.1,0,0.2-0.1,0.3s-0.2,0.1-0.3,0.1h-5.2c0,0,0,0-0.1,0
		c0,0,0,0-0.1,0c0,0,0,0,0,0.1c0,0,0,0,0,0.1V34c0,0,0,0,0,0.1c0,0,0,0,0,0.1c0,0,0,0,0.1,0c0,0,0,0,0.1,0h5.6c0.1,0,0.1,0,0.2,0
		s0.1,0.1,0.2,0.1c0,0,0.1,0.1,0.1,0.2c0,0.1,0,0.1,0,0.2c0,0.1,0,0.1,0,0.2c0,0.1-0.1,0.1-0.1,0.2c-0.1,0.1-0.2,0.1-0.3,0.1H118
		l0,0l0,0V35c0.7,0.5,1.5,1,2.2,1.3c0.9,0.4,1.7,0.7,2.6,1c0.1,0,0.1,0,0.2,0.1s0.1,0.1,0.1,0.2c0,0.1,0,0.1,0,0.2
		c0,0.1,0,0.1-0.1,0.2c-0.1,0.1-0.3,0.2-0.4,0.3c-0.1,0-0.2,0-0.3,0c-0.1,0-0.2,0-0.2,0c-0.9-0.3-1.9-0.7-2.7-1.2
		c-0.8-0.4-1.6-1-2.4-1.6l0,0l0,0l0,0l0,0v2.6c0,0.1,0,0.2,0,0.2c0,0.1-0.1,0.1-0.1,0.2C116.3,38.6,116.2,38.7,116.2,38.7z
		 M115.6,28.4h-3.3c0,0,0,0-0.1,0c0,0,0,0-0.1,0c0,0,0,0,0-0.1c0,0,0,0,0-0.1v-0.7c0,0,0,0,0-0.1c0,0,0,0,0-0.1c0,0,0,0,0.1,0
		c0,0,0,0,0.1,0h3.3c0,0,0,0,0.1,0c0,0,0,0,0.1,0c0,0,0,0,0,0.1c0,0,0,0,0,0.1v0.7c0,0,0,0,0,0.1c0,0,0,0,0,0.1
		C115.7,28.3,115.6,28.3,115.6,28.4L115.6,28.4z M112.3,30.2h3.3l0,0c0,0,0,0,0.1,0l0,0c0,0,0,0,0-0.1c0,0,0,0,0-0.1v-0.7
		c0,0,0,0,0-0.1c0,0,0,0,0-0.1c0,0,0,0-0.1,0c0,0,0,0-0.1,0h-3.3c0,0,0,0-0.1,0c0,0,0,0-0.1,0c0,0,0,0,0,0.1c0,0,0,0,0,0.1V30
		c0,0,0,0,0,0.1c0,0,0,0,0,0.1C112.2,30.2,112.2,30.2,112.3,30.2L112.3,30.2z M115.6,32.1h-3.3c0,0,0,0-0.1,0c0,0,0,0-0.1,0
		c0,0,0,0,0-0.1c0,0,0,0,0-0.1v-0.8c0,0,0,0,0-0.1c0,0,0,0,0-0.1c0,0,0,0,0.1,0c0,0,0,0,0.1,0h3.3c0,0,0,0,0.1,0c0,0,0,0,0.1,0
		c0,0,0,0,0,0.1c0,0,0,0,0,0.1V32c0,0,0,0,0,0.1c0,0,0,0,0,0.1C115.7,32.1,115.6,32.1,115.6,32.1L115.6,32.1z"/>
</g>
<rect x="102" y="9.5" class="st4" width="17.4" height="32.4"/>
<path class="st5" d="M40.6,7.1H28.5V3.9h16.2c0.2,0,0.4-0.2,0.4-0.4V0.3C45.1,0.1,45,0,44.7,0H8.4C8.2,0,8,0.1,8,0.3v3.2
	c0,0.2,0.2,0.4,0.4,0.4h16.2v3.2H12.5C6.1,7.1,1,12.3,1,18.6v3.8c0,0.2,0.2,0.4,0.4,0.4h3.2c0.2,0,0.4-0.2,0.4-0.4v-3.8
	c0-4.2,3.4-7.5,7.5-7.5h12.1v9.7c0,0.2,0.2,0.4,0.4,0.4h3.2c0.2,0,0.4-0.2,0.4-0.4v-9.7h12.1c4.2,0,7.5,3.4,7.5,7.5v3.8
	c0,0.2,0.2,0.4,0.4,0.4h3.2c0.2,0,0.4-0.2,0.4-0.4v-3.8C52.1,12.3,47,7.1,40.6,7.1L40.6,7.1z"/>
<path class="st5" d="M96.9,51.4C87,51.1,78.7,42.1,77,30.2h18.4c0.2,0,0.3-0.2,0.3-0.4v-3.2c0-0.2-0.2-0.4-0.3-0.4H76.7
	c0-0.2,0-0.4,0-0.6v-14h16.2c0.2,0,0.3-0.2,0.3-0.4V8c0-0.2-0.1-0.4-0.3-0.4H56.8c-0.2,0-0.3,0.2-0.3,0.4v3.2c0,0.2,0.1,0.4,0.3,0.4
	h16v14c0,0.2,0,0.4,0,0.6H54.3c-0.2,0-0.3,0.2-0.3,0.4v3.2c0,0.2,0.2,0.4,0.3,0.4h18.3c-1.7,11.8-10,20.9-19.9,21.1
	c-0.2,0-0.4,0.2-0.4,0.4v3.2c0,0.2,0.2,0.4,0.4,0.4c9.9-0.2,18.5-7.7,22.1-18.2C78.4,47.7,87,55.2,96.9,55.3c0.2,0,0.4-0.2,0.4-0.4
	v-3.2C97.3,51.5,97.1,51.4,96.9,51.4L96.9,51.4z"/>
<path class="st5" d="M106.1,33.3v0.6c0,0.1,0.1,0.1,0.1,0.1h3.4v-0.8h-3.4C106.2,33.1,106.1,33.2,106.1,33.3L106.1,33.3z"/>
<rect x="106.1" y="31.3" class="st5" width="3.5" height="0.8"/>
<path class="st5" d="M106.1,29.5v0.7h3.5v-0.8L106.1,29.5C106.2,29.3,106.1,29.4,106.1,29.5L106.1,29.5z"/>
<path class="st5" d="M117.4,7.6h-14.8c-1.8,0-3.3,1.5-3.3,3.3v34.3h18.1c2.2,0,3.9-1.7,3.9-3.9V11.4C121.3,9.3,119.6,7.6,117.4,7.6z
	 M104.8,13.7c-0.1,0-0.1-0.1-0.1-0.1v-1.2c0-0.1,0.1-0.1,0.1-0.1h4.8V11c0-0.1,0.1-0.1,0.1-0.1h1.2c0.1,0,0.1,0.1,0.1,0.1v1.2h4.8
	c0.1,0,0.1,0.1,0.1,0.1v1.2c0,0.1-0.1,0.1-0.1,0.1H111V15h2.9c1.1,0,2,0.9,2,2v4.2c0,0.7-0.6,1.3-1.4,1.3h-1.1
	c-0.1,0-0.1-0.1-0.1-0.1v-1.2c0-0.1,0.1-0.1,0.1-0.1h0.9c0.1,0,0.1-0.1,0.1-0.1v-4c0-0.3-0.2-0.5-0.5-0.5H111v7.4
	c0,0.1-0.1,0.1-0.1,0.1h-1.2c-0.1,0-0.1-0.1-0.1-0.1v-7.4h-3c-0.3,0-0.5,0.2-0.5,0.5v5.3c0,0.1-0.1,0.1-0.1,0.1h-1.2
	c-0.1,0-0.1,0-0.1-0.1V17c0-1.1,0.9-2,2-2h3v-1.4L104.8,13.7L104.8,13.7z M116.7,37.8C116.7,37.9,116.6,37.9,116.7,37.8l-4.5,0.1
	c0.9,0.9,2.4,1.4,3.9,1.5c0.1,0,0.1,0,0.1,0.1v1.2c0,0.1-0.1,0.1-0.1,0.1c-2,0-3.8-0.7-5-1.9v2.2c0,0.1-0.1,0.1-0.1,0.1h-1.2
	c-0.1,0-0.1-0.1-0.1-0.1V39c-1.2,1.1-3,1.8-4.9,1.9c-0.1,0-0.1-0.1-0.1-0.1v-1.2c0-0.1,0-0.1,0.1-0.1c1.6,0,3-0.6,3.9-1.5h-4.4
	c-0.1,0-0.1-0.1-0.1-0.1v-1.2c0-0.1,0.1-0.1,0.1-0.1h5.4v-1h-3.5c-0.8,0-1.5-0.7-1.5-1.5l0,0v-3V31l-1.1-1.2c0,0,0-0.1,0-0.2
	c0.8-0.8,1.5-1.6,2.1-2.6l0.1-0.2c0.1,0,1.4,1,1.4,1s0,0,0.1,0h2.4v-1.3c0-0.1,0.1-0.1,0.1-0.1h1.2c0.1,0,0.1,0.1,0.1,0.1v1.3h5
	c0.1,0,0.1,0.1,0.1,0.1v1.2c0,0.1-0.1,0.1-0.1,0.1h-5V30h4.5c0.1,0,0.1,0.1,0.1,0.1V31c0,0.1-0.1,0.1-0.1,0.1h-4.5V32h4.5
	c0.1,0,0.1,0.1,0.1,0.1V33c0,0.1-0.1,0.1-0.1,0.1h-4.5V34h4.5c0.1,0,0.1,0.1,0.1,0.1v1.2c0,0.1-0.1,0.1-0.1,0.1h-4.5v1h5.5
	c0.1,0,0.1,0.1,0.1,0.1V37.8L116.7,37.8z"/>
<path class="st5" d="M20.3,26h-9.8c-2.1,0-3.8,1.7-3.8,3.8v4.1c0,2.1,1.7,3.8,3.8,3.8h3.3V52c-2.3-0.4-4.1-2.5-4.1-4.9v-3.7
	c0-0.2-0.2-0.4-0.4-0.4H6.1c-0.2,0-0.4,0.2-0.4,0.4v3.9c0,4.9,3.9,8.8,8.8,8.8h9.1c0.2,0,0.4-0.2,0.4-0.4v-3.2
	c0-0.2-0.2-0.4-0.4-0.4h-5.9v-5.5h5.9c0.2,0,0.4-0.2,0.4-0.4V43c0-0.2-0.2-0.4-0.4-0.4h-5.9v-5h2.6c2.1,0,3.8-1.7,3.8-3.8v-4.1
	C24,27.7,22.3,26,20.3,26L20.3,26z M20.1,32.4c0,0.7-0.6,1.3-1.3,1.3h-7c-0.7,0-1.3-0.6-1.3-1.3v-1.2c0-0.7,0.6-1.3,1.3-1.3h7
	c0.7,0,1.3,0.6,1.3,1.3V32.4z"/>
<path class="st5" d="M44.9,34.5c1.1-1.4,1.6-2.8,1.6-4.2v-0.5c0-2.1-1.7-3.8-3.8-3.8H31.9c-2.1,0-3.8,1.7-3.8,3.8v0.5
	c0,1.4,0.6,2.9,1.6,4.2c0.7,0.9,1.6,1.7,2.8,2.3l0.7,0.4C31.8,37.9,31,38,30.5,38h-1.8c-0.2,0-0.4,0.2-0.4,0.4v3.2
	c0,0.2,0.2,0.4,0.4,0.4h1.8h0.1l0,0l0,0h0.1c1.7-0.1,3.9-0.8,6.6-2.2c2.8,1.5,5,2.2,6.7,2.2c0.1,0,0.1,0,0.2,0h1.7
	c0.2,0,0.4-0.2,0.4-0.4v-3.2c0-0.2-0.2-0.4-0.4-0.4h-1.5c-0.1,0-0.2,0-0.2,0l0,0H44l0,0c-0.4,0-1.2-0.1-2.6-0.7l0.7-0.4
	C43.2,36.2,44.2,35.5,44.9,34.5L44.9,34.5z M40.1,33.5l-2.2,1.3c-0.4,0.2-0.9,0.2-1.3,0l-2.2-1.3c-0.7-0.4-1.2-0.9-1.7-1.4
	c-0.2-0.2-0.3-0.5-0.4-0.7c-0.3-0.8,0.3-1.7,1.2-1.7H41c0.9,0,1.5,0.9,1.2,1.7c-0.1,0.3-0.2,0.5-0.4,0.7
	C41.4,32.6,40.8,33.1,40.1,33.5L40.1,33.5z"/>
<path class="st5" d="M44.4,44.1h-12c-2.3,0-4.1,1.7-4.1,3.7v7.8c0,0.2,0.2,0.4,0.4,0.4h13.1c3.8,0,6.9-2.8,6.9-6.2v-2
	C48.6,45.7,46.7,44.1,44.4,44.1L44.4,44.1z M44.9,49.8c0,1.3-1.5,2.4-3.2,2.4H32v-4.3c0.1,0,0.2-0.1,0.4-0.1h12.1
	c0.2,0,0.3,0.1,0.4,0.1V49.8L44.9,49.8z"/>
<path class="st5" d="M18.1,22.3l-2.5-2.5c-0.1-0.1-0.4-0.1-0.5,0l-2.5,2.5c-0.1,0.1-0.4,0.1-0.5,0L9.8,20c-0.1-0.1-0.1-0.4,0-0.5
	l2.9-2.9c1.4-1.4,3.8-1.4,5.3,0l2.9,2.9c0.1,0.1,0.1,0.4,0,0.5l-2.2,2.2C18.5,22.4,18.3,22.4,18.1,22.3L18.1,22.3z"/>
<path class="st5" d="M41.2,22.5L38.7,20c-0.1-0.1-0.4-0.1-0.5,0l-2.5,2.5c-0.1,0.1-0.4,0.1-0.5,0L33,20.3c-0.1-0.1-0.1-0.4,0-0.5
	l2.9-2.9c1.4-1.4,3.8-1.4,5.3,0l2.9,2.9c0.1,0.1,0.1,0.4,0,0.5l-2.2,2.2C41.6,22.7,41.4,22.7,41.2,22.5L41.2,22.5z"/>
</svg>
